<svg width="15" height="15" viewBox="0 0 15 15" fill="none" xmlns="http://www.w3.org/2000/svg">
<path d="M7.50005 12.1026V15C12.4109 15 16.2345 10.2557 14.6281 5.1097C13.9261 2.86086 12.1392 1.07393 9.89032 0.371911C4.74431 -1.23454 0 2.5892 0 7.50008H2.90398C2.90441 7.50008 2.90475 7.49931 2.90475 7.49931C2.90517 4.41738 5.95518 2.03467 9.19537 3.21042C10.3958 3.64605 11.3533 4.60339 11.7892 5.80372C12.9651 9.04203 10.586 12.0909 7.50668 12.0952V9.20723C7.50668 9.20723 7.50643 9.20706 7.50617 9.20706H4.61112C4.61087 9.20706 4.61061 9.20748 4.61061 9.20748V12.1026H7.50005ZM4.6101 14.3278H2.38568L2.38517 14.3273V12.1026H4.61061V14.3273C4.61061 14.3273 4.61036 14.3278 4.6101 14.3278ZM2.3867 12.1026H0.521958C0.521193 12.1026 0.520597 12.1021 0.520597 12.1021V10.2382C0.520597 10.2382 0.521193 10.2369 0.521958 10.2369H2.38534C2.38611 10.2369 2.3867 10.2375 2.3867 10.2375V12.1026Z" fill="#334286"/>
</svg>
