<svg width="278" height="71" viewBox="0 0 278 71" fill="none" xmlns="http://www.w3.org/2000/svg">
<path d="M35.1335 56.8362V70.4087C58.138 70.4087 76.0496 48.1846 68.5243 24.0785C65.2358 13.544 56.8651 5.17328 46.3306 1.88476C22.2244 -5.64052 0 12.2715 0 35.276H13.6035C13.6055 35.276 13.6071 35.2724 13.6071 35.2724C13.6091 20.8354 27.8967 9.67379 43.0751 15.1815C48.6983 17.2222 53.1837 21.7067 55.2256 27.3296C60.7341 42.4991 49.5893 56.7811 35.1646 56.8016V43.273C35.1646 43.273 35.1634 43.2722 35.1622 43.2722H21.6005C21.5993 43.2722 21.5981 43.2742 21.5981 43.2742V56.8362H35.1335ZM21.5957 67.26H11.1756L11.1732 67.2576V56.8362H21.5981V67.2576C21.5981 67.2576 21.5969 67.26 21.5957 67.26ZM11.1803 56.8362H2.44508C2.44149 56.8362 2.4387 56.8338 2.4387 56.8338V48.1026C2.4387 48.1026 2.44149 48.0962 2.44508 48.0962H11.174C11.1776 48.0962 11.1803 48.099 11.1803 48.099V56.8362Z" fill="#334286"/>
<path d="M84.1932 27.495V24.1818H101.601V27.495H94.8572V46H90.9368V27.495H84.1932ZM110.257 46.3196C108.617 46.3196 107.2 45.9787 106.007 45.2969C104.821 44.608 103.908 43.6349 103.269 42.3778C102.63 41.1136 102.31 39.6257 102.31 37.9141C102.31 36.2308 102.63 34.7536 103.269 33.4822C103.915 32.2038 104.817 31.2095 105.975 30.4993C107.132 29.782 108.493 29.4233 110.055 29.4233C111.064 29.4233 112.015 29.5866 112.91 29.9134C113.812 30.233 114.608 30.7301 115.297 31.4048C115.993 32.0795 116.539 32.9389 116.937 33.983C117.335 35.0199 117.534 36.2557 117.534 37.6903V38.8729H104.121V36.2734H113.837C113.83 35.5348 113.67 34.8778 113.358 34.3026C113.045 33.7202 112.608 33.2621 112.047 32.9283C111.493 32.5945 110.847 32.4276 110.108 32.4276C109.32 32.4276 108.628 32.6193 108.031 33.0028C107.434 33.3793 106.969 33.8764 106.635 34.4943C106.309 35.1051 106.142 35.7763 106.135 36.5078V38.777C106.135 39.7287 106.309 40.5455 106.657 41.2273C107.005 41.902 107.491 42.4205 108.116 42.7827C108.741 43.1378 109.473 43.3153 110.311 43.3153C110.872 43.3153 111.38 43.2372 111.834 43.081C112.289 42.9176 112.683 42.6797 113.017 42.3672C113.351 42.0547 113.603 41.6676 113.773 41.206L117.374 41.6108C117.147 42.5625 116.713 43.3935 116.074 44.1037C115.442 44.8068 114.632 45.3537 113.645 45.7443C112.658 46.1278 111.529 46.3196 110.257 46.3196ZM128.534 46.3196C126.901 46.3196 125.498 45.9609 124.326 45.2436C123.161 44.5263 122.263 43.5355 121.631 42.2713C121.006 41 120.693 39.5369 120.693 37.8821C120.693 36.2202 121.013 34.7536 121.652 33.4822C122.291 32.2038 123.193 31.2095 124.358 30.4993C125.53 29.782 126.915 29.4233 128.513 29.4233C129.841 29.4233 131.016 29.6683 132.039 30.1584C133.069 30.6413 133.889 31.3267 134.5 32.2145C135.111 33.0952 135.459 34.125 135.544 35.304H131.858C131.709 34.5156 131.354 33.8587 130.793 33.3331C130.239 32.8004 129.497 32.5341 128.566 32.5341C127.778 32.5341 127.085 32.7472 126.489 33.1733C125.892 33.5923 125.427 34.196 125.093 34.9844C124.766 35.7727 124.603 36.7173 124.603 37.8182C124.603 38.9332 124.766 39.892 125.093 40.6946C125.42 41.4901 125.878 42.1044 126.467 42.5376C127.064 42.9638 127.764 43.1768 128.566 43.1768C129.134 43.1768 129.642 43.0703 130.09 42.8572C130.544 42.6371 130.924 42.321 131.229 41.9091C131.535 41.4972 131.744 40.9964 131.858 40.407H135.544C135.452 41.5646 135.111 42.5909 134.521 43.4858C133.932 44.3736 133.129 45.0696 132.114 45.5739C131.098 46.071 129.905 46.3196 128.534 46.3196ZM143.167 36.4119V46H139.311V29.6364H142.997V32.4169H143.189C143.565 31.5007 144.165 30.7727 144.989 30.233C145.82 29.6932 146.846 29.4233 148.068 29.4233C149.197 29.4233 150.181 29.6648 151.019 30.1477C151.864 30.6307 152.518 31.3303 152.979 32.2464C153.448 33.1626 153.679 34.2741 153.672 35.581V46H149.815V36.1776C149.815 35.0838 149.531 34.228 148.963 33.6101C148.402 32.9922 147.624 32.6832 146.63 32.6832C145.955 32.6832 145.355 32.8324 144.829 33.1307C144.311 33.4219 143.902 33.8445 143.604 34.3984C143.313 34.9524 143.167 35.6236 143.167 36.4119ZM165.33 46.3196C163.732 46.3196 162.347 45.968 161.175 45.2649C160.003 44.5618 159.094 43.5781 158.448 42.3139C157.809 41.0497 157.489 39.5724 157.489 37.8821C157.489 36.1918 157.809 34.7109 158.448 33.4396C159.094 32.1683 160.003 31.1811 161.175 30.478C162.347 29.7749 163.732 29.4233 165.33 29.4233C166.928 29.4233 168.313 29.7749 169.485 30.478C170.657 31.1811 171.562 32.1683 172.201 33.4396C172.848 34.7109 173.171 36.1918 173.171 37.8821C173.171 39.5724 172.848 41.0497 172.201 42.3139C171.562 43.5781 170.657 44.5618 169.485 45.2649C168.313 45.968 166.928 46.3196 165.33 46.3196ZM165.351 43.2301C166.218 43.2301 166.942 42.9922 167.524 42.5163C168.107 42.0334 168.54 41.3871 168.824 40.5774C169.115 39.7678 169.261 38.8658 169.261 37.8714C169.261 36.87 169.115 35.9645 168.824 35.1548C168.54 34.3381 168.107 33.6882 167.524 33.2053C166.942 32.7223 166.218 32.4808 165.351 32.4808C164.463 32.4808 163.725 32.7223 163.135 33.2053C162.553 33.6882 162.116 34.3381 161.825 35.1548C161.541 35.9645 161.399 36.87 161.399 37.8714C161.399 38.8658 161.541 39.7678 161.825 40.5774C162.116 41.3871 162.553 42.0334 163.135 42.5163C163.725 42.9922 164.463 43.2301 165.351 43.2301ZM178.376 24.1818L184.054 41.3551H184.278L189.945 24.1818H194.292L186.6 46H181.721L174.04 24.1818H178.376ZM203.082 46.3196C201.441 46.3196 200.024 45.9787 198.831 45.2969C197.645 44.608 196.732 43.6349 196.093 42.3778C195.454 41.1136 195.134 39.6257 195.134 37.9141C195.134 36.2308 195.454 34.7536 196.093 33.4822C196.739 32.2038 197.641 31.2095 198.799 30.4993C199.957 29.782 201.317 29.4233 202.879 29.4233C203.888 29.4233 204.84 29.5866 205.734 29.9134C206.636 30.233 207.432 30.7301 208.121 31.4048C208.817 32.0795 209.364 32.9389 209.761 33.983C210.159 35.0199 210.358 36.2557 210.358 37.6903V38.8729H196.945V36.2734H206.661C206.654 35.5348 206.494 34.8778 206.182 34.3026C205.869 33.7202 205.433 33.2621 204.871 32.9283C204.318 32.5945 203.671 32.4276 202.933 32.4276C202.144 32.4276 201.452 32.6193 200.855 33.0028C200.259 33.3793 199.793 33.8764 199.46 34.4943C199.133 35.1051 198.966 35.7763 198.959 36.5078V38.777C198.959 39.7287 199.133 40.5455 199.481 41.2273C199.829 41.902 200.315 42.4205 200.94 42.7827C201.565 43.1378 202.297 43.3153 203.135 43.3153C203.696 43.3153 204.204 43.2372 204.658 43.081C205.113 42.9176 205.507 42.6797 205.841 42.3672C206.175 42.0547 206.427 41.6676 206.597 41.206L210.198 41.6108C209.971 42.5625 209.538 43.3935 208.898 44.1037C208.266 44.8068 207.457 45.3537 206.469 45.7443C205.482 46.1278 204.353 46.3196 203.082 46.3196ZM218.077 36.4119V46H214.221V29.6364H217.907V32.4169H218.098C218.475 31.5007 219.075 30.7727 219.899 30.233C220.73 29.6932 221.756 29.4233 222.978 29.4233C224.107 29.4233 225.091 29.6648 225.929 30.1477C226.774 30.6307 227.427 31.3303 227.889 32.2464C228.358 33.1626 228.588 34.2741 228.581 35.581V46H224.725V36.1776C224.725 35.0838 224.441 34.228 223.873 33.6101C223.312 32.9922 222.534 32.6832 221.539 32.6832C220.865 32.6832 220.265 32.8324 219.739 33.1307C219.221 33.4219 218.812 33.8445 218.514 34.3984C218.223 34.9524 218.077 35.6236 218.077 36.4119ZM241.273 29.6364V32.6193H231.866V29.6364H241.273ZM234.188 25.7159H238.045V41.0781C238.045 41.5966 238.123 41.9943 238.279 42.2713C238.443 42.5412 238.656 42.7259 238.919 42.8253C239.181 42.9247 239.473 42.9744 239.792 42.9744C240.034 42.9744 240.254 42.9567 240.453 42.9212C240.659 42.8857 240.815 42.8537 240.921 42.8253L241.571 45.8402C241.365 45.9112 241.071 45.9893 240.687 46.0746C240.311 46.1598 239.849 46.2095 239.302 46.2237C238.336 46.2521 237.466 46.1065 236.692 45.7869C235.918 45.4602 235.304 44.956 234.849 44.2741C234.402 43.5923 234.181 42.7401 234.188 41.7173V25.7159ZM249.807 46.3303C248.77 46.3303 247.836 46.1456 247.005 45.7763C246.181 45.3999 245.528 44.8459 245.045 44.1143C244.569 43.3828 244.331 42.4808 244.331 41.4084C244.331 40.4851 244.502 39.7216 244.843 39.1179C245.184 38.5142 245.649 38.0312 246.238 37.669C246.828 37.3068 247.492 37.0334 248.23 36.8487C248.976 36.657 249.747 36.5185 250.542 36.4332C251.501 36.3338 252.279 36.245 252.875 36.1669C253.472 36.0817 253.905 35.9538 254.175 35.7834C254.452 35.6058 254.591 35.3324 254.591 34.9631V34.8991C254.591 34.0966 254.353 33.4751 253.877 33.0348C253.401 32.5945 252.716 32.3743 251.821 32.3743C250.876 32.3743 250.127 32.5803 249.573 32.9922C249.026 33.4041 248.657 33.8906 248.465 34.4517L244.864 33.9403C245.148 32.946 245.617 32.1151 246.27 31.4474C246.924 30.7727 247.723 30.2685 248.667 29.9347C249.612 29.5938 250.656 29.4233 251.799 29.4233C252.588 29.4233 253.372 29.5156 254.154 29.7003C254.935 29.8849 255.649 30.1903 256.295 30.6165C256.941 31.0355 257.46 31.6072 257.85 32.3317C258.248 33.0561 258.447 33.9616 258.447 35.0483V46H254.74V43.7521H254.612C254.377 44.2067 254.047 44.6328 253.621 45.0305C253.202 45.4212 252.673 45.7372 252.034 45.9787C251.402 46.2131 250.659 46.3303 249.807 46.3303ZM250.809 43.4964C251.583 43.4964 252.254 43.3437 252.822 43.0384C253.39 42.7259 253.827 42.3139 254.132 41.8026C254.445 41.2912 254.601 40.7337 254.601 40.13V38.2017C254.48 38.3011 254.274 38.3935 253.983 38.4787C253.699 38.5639 253.38 38.6385 253.024 38.7024C252.669 38.7663 252.318 38.8232 251.97 38.8729C251.622 38.9226 251.32 38.9652 251.064 39.0007C250.489 39.0788 249.974 39.2067 249.519 39.3842C249.065 39.5618 248.706 39.8104 248.443 40.13C248.181 40.4425 248.049 40.8473 248.049 41.3445C248.049 42.0547 248.309 42.5909 248.827 42.9531C249.345 43.3153 250.006 43.4964 250.809 43.4964ZM275.858 33.9616L272.343 34.3452C272.243 33.9901 272.069 33.6562 271.82 33.3438C271.579 33.0312 271.252 32.7791 270.84 32.5874C270.428 32.3956 269.924 32.2997 269.328 32.2997C268.525 32.2997 267.85 32.4737 267.303 32.8217C266.764 33.1697 266.497 33.6207 266.504 34.1747C266.497 34.6506 266.671 35.0376 267.026 35.3359C267.389 35.6342 267.985 35.8793 268.816 36.071L271.607 36.6676C273.156 37.0014 274.306 37.5305 275.059 38.255C275.819 38.9794 276.203 39.9276 276.21 41.0994C276.203 42.1293 275.901 43.0384 275.304 43.8267C274.715 44.608 273.894 45.2187 272.843 45.6591C271.792 46.0994 270.585 46.3196 269.221 46.3196C267.218 46.3196 265.606 45.9006 264.384 45.0625C263.163 44.2173 262.435 43.0419 262.2 41.5362L265.961 41.174C266.132 41.9126 266.494 42.4702 267.048 42.8466C267.602 43.223 268.323 43.4112 269.21 43.4112C270.127 43.4112 270.862 43.223 271.416 42.8466C271.977 42.4702 272.257 42.005 272.257 41.451C272.257 40.9822 272.076 40.5952 271.714 40.2898C271.359 39.9844 270.805 39.75 270.052 39.5866L267.261 39.0007C265.691 38.674 264.53 38.1236 263.777 37.3494C263.024 36.5682 262.651 35.581 262.659 34.3878C262.651 33.3793 262.925 32.5057 263.479 31.767C264.04 31.0213 264.818 30.446 265.812 30.0412C266.813 29.6293 267.968 29.4233 269.274 29.4233C271.192 29.4233 272.701 29.8317 273.802 30.6484C274.91 31.4652 275.595 32.5696 275.858 33.9616Z" fill="#334286"/>
</svg>
