<svg width="278" height="71" viewBox="0 0 278 71" fill="none" xmlns="http://www.w3.org/2000/svg">
<path d="M35.1335 56.6937V70.2661C58.138 70.2661 76.0496 48.0421 68.5243 23.9359C65.2358 13.4014 56.8651 5.0307 46.3306 1.74218C22.2244 -5.78309 0 12.1289 0 35.1334H13.6035C13.6055 35.1334 13.6071 35.1298 13.6071 35.1298C13.6091 20.6928 27.8967 9.53121 43.0751 15.0389C48.6983 17.0796 53.1837 21.5642 55.2256 27.187C60.7341 42.3565 49.5893 56.6385 35.1646 56.659V43.1304C35.1646 43.1304 35.1634 43.1296 35.1622 43.1296H21.6005C21.5993 43.1296 21.5981 43.1316 21.5981 43.1316V56.6937H35.1335ZM21.5957 67.1174H11.1756L11.1732 67.115V56.6937H21.5981V67.115C21.5981 67.115 21.5969 67.1174 21.5957 67.1174ZM11.1803 56.6937H2.44508C2.44149 56.6937 2.4387 56.6913 2.4387 56.6913V47.96C2.4387 47.96 2.44149 47.9536 2.44508 47.9536H11.174C11.1776 47.9536 11.1803 47.9564 11.1803 47.9564V56.6937Z" fill="white"/>
<path d="M84.1932 27.3525V24.0392H101.601V27.3525H94.8572V45.8574H90.9368V27.3525H84.1932ZM110.257 46.177C108.617 46.177 107.2 45.8361 106.007 45.1543C104.821 44.4654 103.908 43.4924 103.269 42.2353C102.63 40.9711 102.31 39.4831 102.31 37.7715C102.31 36.0882 102.63 34.611 103.269 33.3397C103.915 32.0613 104.817 31.0669 105.975 30.3567C107.132 29.6394 108.493 29.2807 110.055 29.2807C111.064 29.2807 112.015 29.4441 112.91 29.7708C113.812 30.0904 114.608 30.5875 115.297 31.2623C115.993 31.937 116.539 32.7963 116.937 33.8404C117.335 34.8773 117.534 36.1131 117.534 37.5478V38.7303H104.121V36.1309H113.837C113.83 35.3922 113.67 34.7353 113.358 34.16C113.045 33.5776 112.608 33.1195 112.047 32.7857C111.493 32.4519 110.847 32.285 110.108 32.285C109.32 32.285 108.628 32.4767 108.031 32.8603C107.434 33.2367 106.969 33.7338 106.635 34.3517C106.309 34.9625 106.142 35.6337 106.135 36.3652V38.6344C106.135 39.5861 106.309 40.4029 106.657 41.0847C107.005 41.7594 107.491 42.2779 108.116 42.6401C108.741 42.9952 109.473 43.1728 110.311 43.1728C110.872 43.1728 111.38 43.0946 111.834 42.9384C112.289 42.775 112.683 42.5371 113.017 42.2246C113.351 41.9121 113.603 41.525 113.773 41.0634L117.374 41.4682C117.147 42.4199 116.713 43.2509 116.074 43.9611C115.442 44.6642 114.632 45.2111 113.645 45.6017C112.658 45.9853 111.529 46.177 110.257 46.177ZM128.534 46.177C126.901 46.177 125.498 45.8184 124.326 45.101C123.161 44.3837 122.263 43.3929 121.631 42.1287C121.006 40.8574 120.693 39.3944 120.693 37.7395C120.693 36.0776 121.013 34.611 121.652 33.3397C122.291 32.0613 123.193 31.0669 124.358 30.3567C125.53 29.6394 126.915 29.2807 128.513 29.2807C129.841 29.2807 131.016 29.5257 132.039 30.0158C133.069 30.4988 133.889 31.1841 134.5 32.0719C135.111 32.9526 135.459 33.9824 135.544 35.1614H131.858C131.709 34.373 131.354 33.7161 130.793 33.1905C130.239 32.6578 129.497 32.3915 128.566 32.3915C127.778 32.3915 127.085 32.6046 126.489 33.0307C125.892 33.4498 125.427 34.0534 125.093 34.8418C124.766 35.6301 124.603 36.5748 124.603 37.6756C124.603 38.7907 124.766 39.7495 125.093 40.552C125.42 41.3475 125.878 41.9618 126.467 42.3951C127.064 42.8212 127.764 43.0343 128.566 43.0343C129.134 43.0343 129.642 42.9277 130.09 42.7147C130.544 42.4945 130.924 42.1784 131.229 41.7665C131.535 41.3546 131.744 40.8539 131.858 40.2644H135.544C135.452 41.4221 135.111 42.4483 134.521 43.3432C133.932 44.231 133.129 44.927 132.114 45.4313C131.098 45.9284 129.905 46.177 128.534 46.177ZM143.167 36.2694V45.8574H139.311V29.4938H142.997V32.2743H143.189C143.565 31.3581 144.165 30.6301 144.989 30.0904C145.82 29.5506 146.846 29.2807 148.068 29.2807C149.197 29.2807 150.181 29.5222 151.019 30.0051C151.864 30.4881 152.518 31.1877 152.979 32.1039C153.448 33.0201 153.679 34.1316 153.672 35.4384V45.8574H149.815V36.035C149.815 34.9412 149.531 34.0854 148.963 33.4675C148.402 32.8496 147.624 32.5407 146.63 32.5407C145.955 32.5407 145.355 32.6898 144.829 32.9881C144.311 33.2793 143.902 33.7019 143.604 34.2559C143.313 34.8098 143.167 35.481 143.167 36.2694ZM165.33 46.177C163.732 46.177 162.347 45.8255 161.175 45.1223C160.003 44.4192 159.094 43.4355 158.448 42.1713C157.809 40.9071 157.489 39.4299 157.489 37.7395C157.489 36.0492 157.809 34.5684 158.448 33.2971C159.094 32.0257 160.003 31.0385 161.175 30.3354C162.347 29.6323 163.732 29.2807 165.33 29.2807C166.928 29.2807 168.313 29.6323 169.485 30.3354C170.657 31.0385 171.562 32.0257 172.201 33.2971C172.848 34.5684 173.171 36.0492 173.171 37.7395C173.171 39.4299 172.848 40.9071 172.201 42.1713C171.562 43.4355 170.657 44.4192 169.485 45.1223C168.313 45.8255 166.928 46.177 165.33 46.177ZM165.351 43.0875C166.218 43.0875 166.942 42.8496 167.524 42.3738C168.107 41.8908 168.54 41.2445 168.824 40.4348C169.115 39.6252 169.261 38.7232 169.261 37.7289C169.261 36.7274 169.115 35.8219 168.824 35.0123C168.54 34.1955 168.107 33.5456 167.524 33.0627C166.942 32.5797 166.218 32.3382 165.351 32.3382C164.463 32.3382 163.725 32.5797 163.135 33.0627C162.553 33.5456 162.116 34.1955 161.825 35.0123C161.541 35.8219 161.399 36.7274 161.399 37.7289C161.399 38.7232 161.541 39.6252 161.825 40.4348C162.116 41.2445 162.553 41.8908 163.135 42.3738C163.725 42.8496 164.463 43.0875 165.351 43.0875ZM178.376 24.0392L184.054 41.2125H184.278L189.945 24.0392H194.292L186.6 45.8574H181.721L174.04 24.0392H178.376ZM203.082 46.177C201.441 46.177 200.024 45.8361 198.831 45.1543C197.645 44.4654 196.732 43.4924 196.093 42.2353C195.454 40.9711 195.134 39.4831 195.134 37.7715C195.134 36.0882 195.454 34.611 196.093 33.3397C196.739 32.0613 197.641 31.0669 198.799 30.3567C199.957 29.6394 201.317 29.2807 202.879 29.2807C203.888 29.2807 204.84 29.4441 205.734 29.7708C206.636 30.0904 207.432 30.5875 208.121 31.2623C208.817 31.937 209.364 32.7963 209.761 33.8404C210.159 34.8773 210.358 36.1131 210.358 37.5478V38.7303H196.945V36.1309H206.661C206.654 35.3922 206.494 34.7353 206.182 34.16C205.869 33.5776 205.433 33.1195 204.871 32.7857C204.318 32.4519 203.671 32.285 202.933 32.285C202.144 32.285 201.452 32.4767 200.855 32.8603C200.259 33.2367 199.793 33.7338 199.46 34.3517C199.133 34.9625 198.966 35.6337 198.959 36.3652V38.6344C198.959 39.5861 199.133 40.4029 199.481 41.0847C199.829 41.7594 200.315 42.2779 200.94 42.6401C201.565 42.9952 202.297 43.1728 203.135 43.1728C203.696 43.1728 204.204 43.0946 204.658 42.9384C205.113 42.775 205.507 42.5371 205.841 42.2246C206.175 41.9121 206.427 41.525 206.597 41.0634L210.198 41.4682C209.971 42.4199 209.538 43.2509 208.898 43.9611C208.266 44.6642 207.457 45.2111 206.469 45.6017C205.482 45.9853 204.353 46.177 203.082 46.177ZM218.077 36.2694V45.8574H214.221V29.4938H217.907V32.2743H218.098C218.475 31.3581 219.075 30.6301 219.899 30.0904C220.73 29.5506 221.756 29.2807 222.978 29.2807C224.107 29.2807 225.091 29.5222 225.929 30.0051C226.774 30.4881 227.427 31.1877 227.889 32.1039C228.358 33.0201 228.588 34.1316 228.581 35.4384V45.8574H224.725V36.035C224.725 34.9412 224.441 34.0854 223.873 33.4675C223.312 32.8496 222.534 32.5407 221.539 32.5407C220.865 32.5407 220.265 32.6898 219.739 32.9881C219.221 33.2793 218.812 33.7019 218.514 34.2559C218.223 34.8098 218.077 35.481 218.077 36.2694ZM241.273 29.4938V32.4767H231.866V29.4938H241.273ZM234.188 25.5733H238.045V40.9355C238.045 41.454 238.123 41.8517 238.279 42.1287C238.443 42.3986 238.656 42.5833 238.919 42.6827C239.181 42.7821 239.473 42.8319 239.792 42.8319C240.034 42.8319 240.254 42.8141 240.453 42.7786C240.659 42.7431 240.815 42.7111 240.921 42.6827L241.571 45.6976C241.365 45.7686 241.071 45.8468 240.687 45.932C240.311 46.0172 239.849 46.0669 239.302 46.0811C238.336 46.1096 237.466 45.964 236.692 45.6444C235.918 45.3176 235.304 44.8134 234.849 44.1316C234.402 43.4498 234.181 42.5975 234.188 41.5748V25.5733ZM249.807 46.1877C248.77 46.1877 247.836 46.003 247.005 45.6337C246.181 45.2573 245.528 44.7033 245.045 43.9718C244.569 43.2402 244.331 42.3382 244.331 41.2658C244.331 40.3425 244.502 39.579 244.843 38.9753C245.184 38.3716 245.649 37.8887 246.238 37.5265C246.828 37.1642 247.492 36.8908 248.23 36.7061C248.976 36.5144 249.747 36.3759 250.542 36.2907C251.501 36.1912 252.279 36.1024 252.875 36.0243C253.472 35.9391 253.905 35.8113 254.175 35.6408C254.452 35.4632 254.591 35.1898 254.591 34.8205V34.7566C254.591 33.954 254.353 33.3326 253.877 32.8922C253.401 32.4519 252.716 32.2317 251.821 32.2317C250.876 32.2317 250.127 32.4377 249.573 32.8496C249.026 33.2615 248.657 33.748 248.465 34.3091L244.864 33.7978C245.148 32.8034 245.617 31.9725 246.27 31.3049C246.924 30.6301 247.723 30.1259 248.667 29.7921C249.612 29.4512 250.656 29.2807 251.799 29.2807C252.588 29.2807 253.372 29.373 254.154 29.5577C254.935 29.7424 255.649 30.0478 256.295 30.4739C256.941 30.8929 257.46 31.4647 257.85 32.1891C258.248 32.9135 258.447 33.8191 258.447 34.9057V45.8574H254.74V43.6096H254.612C254.377 44.0641 254.047 44.4902 253.621 44.888C253.202 45.2786 252.673 45.5946 252.034 45.8361C251.402 46.0705 250.659 46.1877 249.807 46.1877ZM250.809 43.3539C251.583 43.3539 252.254 43.2012 252.822 42.8958C253.39 42.5833 253.827 42.1713 254.132 41.66C254.445 41.1486 254.601 40.5911 254.601 39.9874V38.0591C254.48 38.1586 254.274 38.2509 253.983 38.3361C253.699 38.4213 253.38 38.4959 253.024 38.5598C252.669 38.6238 252.318 38.6806 251.97 38.7303C251.622 38.78 251.32 38.8226 251.064 38.8581C250.489 38.9363 249.974 39.0641 249.519 39.2417C249.065 39.4192 248.706 39.6678 248.443 39.9874C248.181 40.2999 248.049 40.7047 248.049 41.2019C248.049 41.9121 248.309 42.4483 248.827 42.8105C249.345 43.1728 250.006 43.3539 250.809 43.3539ZM275.858 33.8191L272.343 34.2026C272.243 33.8475 272.069 33.5137 271.82 33.2012C271.579 32.8887 271.252 32.6365 270.84 32.4448C270.428 32.253 269.924 32.1571 269.328 32.1571C268.525 32.1571 267.85 32.3311 267.303 32.6792C266.764 33.0272 266.497 33.4782 266.504 34.0321C266.497 34.508 266.671 34.8951 267.026 35.1934C267.389 35.4917 267.985 35.7367 268.816 35.9284L271.607 36.525C273.156 36.8588 274.306 37.388 275.059 38.1124C275.819 38.8368 276.203 39.785 276.21 40.9569C276.203 41.9867 275.901 42.8958 275.304 43.6841C274.715 44.4654 273.894 45.0762 272.843 45.5165C271.792 45.9569 270.585 46.177 269.221 46.177C267.218 46.177 265.606 45.758 264.384 44.9199C263.163 44.0748 262.435 42.8993 262.2 41.3936L265.961 41.0314C266.132 41.7701 266.494 42.3276 267.048 42.704C267.602 43.0804 268.323 43.2686 269.21 43.2686C270.127 43.2686 270.862 43.0804 271.416 42.704C271.977 42.3276 272.257 41.8624 272.257 41.3084C272.257 40.8397 272.076 40.4526 271.714 40.1472C271.359 39.8418 270.805 39.6074 270.052 39.4441L267.261 38.8581C265.691 38.5314 264.53 37.981 263.777 37.2069C263.024 36.4256 262.651 35.4384 262.659 34.2452C262.651 33.2367 262.925 32.3631 263.479 31.6245C264.04 30.8787 264.818 30.3034 265.812 29.8986C266.813 29.4867 267.968 29.2807 269.274 29.2807C271.192 29.2807 272.701 29.6891 273.802 30.5059C274.91 31.3226 275.595 32.427 275.858 33.8191Z" fill="white"/>
</svg>
